<svg width="120" height="65" viewBox="0 0 120 65" fill="none" xmlns="http://www.w3.org/2000/svg">
<path d="M0 5.52806C0 3.14774 2.63921 1.71548 4.63497 3.01273L58.365 37.9373C59.3592 38.5835 60.6408 38.5835 61.635 37.9373L115.365 3.01272C117.361 1.71548 120 3.14774 120 5.52806V62C120 63.6569 118.657 65 117 65H110.5C108.843 65 107.5 63.6569 107.5 62V44.0621C107.5 41.783 105.059 40.3362 103.06 41.4306L61.4404 64.2116C60.543 64.7028 59.457 64.7028 58.5596 64.2116L16.9404 41.4306C14.9412 40.3362 12.5 41.783 12.5 44.0621V62C12.5 63.6569 11.1569 65 9.5 65H3C1.34315 65 0 63.6569 0 62V5.52806Z" fill="white"/>
<path d="M13.6915 5.53098C11.1594 3.91964 12.3008 0 15.3022 0H104.698C107.699 0 108.841 3.91964 106.308 5.53098L61.6106 33.9751C60.6279 34.6004 59.3721 34.6004 58.3894 33.9751L13.6915 5.53098Z" fill="#311B92"/>
</svg>
